# Blender 3.1.0
# www.blender.org
g Icosphere.002_Icosphere.003
v -0.816740 -0.000000 0.505226
v -0.842931 0.016178 0.495265
v -0.826715 0.026176 0.521419
v -0.816693 -0.000000 0.537582
v -0.826715 -0.026176 0.521419
v -0.842931 -0.016178 0.495265
v -0.859072 0.026176 0.521465
v -0.842856 0.016178 0.547619
v -0.842856 -0.016178 0.547619
v -0.859072 -0.026176 0.521465
v -0.869094 0.000000 0.505302
v -0.869047 0.000000 0.537658
v -0.817920 0.015443 0.511862
v -0.827487 0.009544 0.496433
v -0.833371 0.024987 0.505985
v -0.842938 0.000000 0.490556
v -0.827487 -0.009544 0.496433
v -0.812008 0.000000 0.521397
v -0.817893 0.015443 0.530950
v -0.817920 -0.015443 0.511862
v -0.817893 -0.015443 0.530950
v -0.833371 -0.024987 0.505985
v -0.858372 0.009544 0.496477
v -0.858372 -0.009544 0.496477
v -0.842894 0.030886 0.521442
v -0.852460 0.024987 0.506013
v -0.827415 0.009544 0.546407
v -0.833327 0.024987 0.536871
v -0.833327 -0.024987 0.536871
v -0.827415 -0.009544 0.546407
v -0.852460 -0.024987 0.506013
v -0.842894 -0.030886 0.521442
v -0.867894 0.015443 0.511934
v -0.852416 0.024987 0.536899
v -0.842849 0.000000 0.552328
v -0.852416 -0.024987 0.536899
v -0.867894 -0.015443 0.511934
v -0.867867 0.015443 0.531022
v -0.873779 0.000000 0.521487
v -0.858301 0.009544 0.546451
v -0.858301 -0.009544 0.546451
v -0.867867 -0.015443 0.531022
v -0.824937 0.017982 0.503433
v -0.831821 -0.000000 0.492330
v -0.813797 0.011114 0.521400
v -0.813797 -0.011114 0.521400
v -0.824937 -0.017982 0.503433
v -0.854049 -0.000000 0.492362
v -0.842910 0.029096 0.510328
v -0.824885 0.017982 0.539399
v -0.824885 -0.017982 0.539399
v -0.842910 -0.029096 0.510328
v -0.860902 0.017982 0.503486
v -0.842878 0.029096 0.532556
v -0.831738 -0.000000 0.550522
v -0.842878 -0.029096 0.532556
v -0.860902 -0.017982 0.503486
v -0.871990 0.011114 0.521484
v -0.860850 0.017982 0.539451
v -0.853966 0.000000 0.550555
v -0.860850 -0.017982 0.539451
v -0.871990 -0.011114 0.521484
vn 0.0315 0.0120 -0.0241
vn 0.0119 0.0241 -0.0316
vn 0.0241 0.0316 -0.0120
vn 0.0073 0.0121 -0.0390
vn 0.0270 -0.0000 -0.0315
vn 0.0073 -0.0121 -0.0390
vn 0.0389 0.0074 -0.0122
vn 0.0315 0.0270 -0.0000
vn 0.0390 0.0074 0.0121
vn 0.0389 -0.0074 -0.0122
vn 0.0390 -0.0074 0.0121
vn 0.0315 -0.0270 -0.0000
vn 0.0315 -0.0120 -0.0241
vn 0.0241 -0.0316 -0.0120
vn 0.0119 -0.0241 -0.0316
vn -0.0075 0.0121 -0.0390
vn -0.0075 -0.0121 -0.0390
vn -0.0270 -0.0000 -0.0314
vn 0.0121 0.0390 -0.0074
vn -0.0000 0.0315 -0.0270
vn -0.0121 0.0390 -0.0074
vn 0.0316 0.0120 0.0240
vn 0.0241 0.0316 0.0119
vn 0.0120 0.0241 0.0316
vn 0.0241 -0.0316 0.0119
vn 0.0316 -0.0120 0.0240
vn 0.0120 -0.0241 0.0316
vn -0.0000 -0.0315 -0.0270
vn 0.0121 -0.0390 -0.0074
vn -0.0121 -0.0390 -0.0074
vn -0.0120 0.0241 -0.0316
vn -0.0316 0.0120 -0.0240
vn -0.0241 0.0316 -0.0119
vn 0.0121 0.0390 0.0074
vn -0.0121 0.0390 0.0074
vn -0.0000 0.0315 0.0270
vn 0.0270 -0.0000 0.0314
vn 0.0075 0.0121 0.0390
vn 0.0075 -0.0121 0.0390
vn 0.0121 -0.0390 0.0074
vn -0.0000 -0.0315 0.0270
vn -0.0121 -0.0390 0.0074
vn -0.0120 -0.0241 -0.0316
vn -0.0241 -0.0316 -0.0119
vn -0.0316 -0.0120 -0.0240
vn -0.0315 0.0270 -0.0000
vn -0.0390 0.0074 -0.0121
vn -0.0389 0.0074 0.0122
vn -0.0119 0.0241 0.0316
vn -0.0241 0.0316 0.0120
vn -0.0315 0.0120 0.0241
vn -0.0073 -0.0121 0.0390
vn -0.0073 0.0121 0.0390
vn -0.0270 -0.0000 0.0315
vn -0.0241 -0.0316 0.0120
vn -0.0119 -0.0241 0.0316
vn -0.0315 -0.0120 0.0241
vn -0.0390 -0.0074 -0.0121
vn -0.0315 -0.0270 -0.0000
vn -0.0389 -0.0074 0.0122
s 0
f 1//1 14//1 43//1 13//1
f 2//2 15//2 43//2 14//2
f 3//3 13//3 43//3 15//3
f 2//4 14//4 44//4 16//4
f 1//5 17//5 44//5 14//5
f 6//6 16//6 44//6 17//6
f 1//7 13//7 45//7 18//7
f 3//8 19//8 45//8 13//8
f 4//9 18//9 45//9 19//9
f 1//10 18//10 46//10 20//10
f 4//11 21//11 46//11 18//11
f 5//12 20//12 46//12 21//12
f 1//13 20//13 47//13 17//13
f 5//14 22//14 47//14 20//14
f 6//15 17//15 47//15 22//15
f 2//16 16//16 48//16 23//16
f 6//17 24//17 48//17 16//17
f 11//18 23//18 48//18 24//18
f 3//19 15//19 49//19 25//19
f 2//20 26//20 49//20 15//20
f 7//21 25//21 49//21 26//21
f 4//22 19//22 50//22 27//22
f 3//23 28//23 50//23 19//23
f 8//24 27//24 50//24 28//24
f 5//25 21//25 51//25 29//25
f 4//26 30//26 51//26 21//26
f 9//27 29//27 51//27 30//27
f 6//28 22//28 52//28 31//28
f 5//29 32//29 52//29 22//29
f 10//30 31//30 52//30 32//30
f 2//31 23//31 53//31 26//31
f 11//32 33//32 53//32 23//32
f 7//33 26//33 53//33 33//33
f 3//34 25//34 54//34 28//34
f 7//35 34//35 54//35 25//35
f 8//36 28//36 54//36 34//36
f 4//37 27//37 55//37 30//37
f 8//38 35//38 55//38 27//38
f 9//39 30//39 55//39 35//39
f 5//40 29//40 56//40 32//40
f 9//41 36//41 56//41 29//41
f 10//42 32//42 56//42 36//42
f 6//43 31//43 57//43 24//43
f 10//44 37//44 57//44 31//44
f 11//45 24//45 57//45 37//45
f 7//46 33//46 58//46 38//46
f 11//47 39//47 58//47 33//47
f 12//48 38//48 58//48 39//48
f 8//49 34//49 59//49 40//49
f 7//50 38//50 59//50 34//50
f 12//51 40//51 59//51 38//51
f 9//52 35//52 60//52 41//52
f 8//53 40//53 60//53 35//53
f 12//54 41//54 60//54 40//54
f 10//55 36//55 61//55 42//55
f 9//56 41//56 61//56 36//56
f 12//57 42//57 61//57 41//57
f 11//58 37//58 62//58 39//58
f 10//59 42//59 62//59 37//59
f 12//60 39//60 62//60 42//60
